<?xml version="1.0" encoding="UTF-8"?>
<svg id="Layer_1" data-name="Layer 1" xmlns="http://www.w3.org/2000/svg" viewBox="0 0 634.85 638.33">
  <path d="m295.48.59c91.08-5.27,175.96,24.34,245.67,92.23,52.67,51.28,84.1,114.63,91.67,188.26,10.88,105.84-21.95,196.69-98.8,270.33-57.67,55.26-127.82,84.05-207.45,86.73-80.11,2.7-151.58-22.59-212.84-74.55C42.51,503.17,3.84,425.62.27,332.57c-3.84-100.12,33.04-184.84,106.79-252.57C158.42,32.84,220.48,8.76,295.48.59Zm26.57,540.6c11.72,1.38,23.95-.95,36.05-3.07,18.73-3.27,36.8-9.31,53.7-17.97,26.38-13.51,50.35-30.3,70.41-52.6,19.63-21.81,34.59-46.13,44.5-73.69,8.54-23.73,11.98-48.26,12.16-73.36.04-4.97-.82-9.89-1-14.81-.34-9.41-1.69-18.68-3.61-27.82-4.08-19.42-10.82-37.9-20.09-55.51-13.79-26.19-32.38-48.35-54.65-67.71-14.39-12.51-30.54-22.25-47.33-30.81-13.73-7-28.59-11.57-43.59-15.27-14.32-3.53-28.93-5.23-43.65-6.12-11.11-.67-22.13.03-33.22.85-12.77.95-25.08,3.84-37.3,7.12-16.99,4.56-33.32,10.93-48.72,19.63-12.6,7.12-24.5,15.21-35.42,24.64-12.04,10.39-22.96,21.91-32.69,34.54-15.71,20.4-27.87,42.76-35.48,67.3-6.88,22.19-9.85,45.02-9.52,68.42.22,15.73,1.59,31.17,5.33,46.37,2.89,11.74,6.53,23.21,11.32,34.44,3.77,8.83,7.64,17.56,12.56,25.7,14.23,23.53,32.03,43.9,53.57,61.24,16.53,13.3,34.41,24.06,53.84,32.11,29.41,12.18,60.05,18.5,92.82,16.39Z" style="fill: #363e4d;"/>
  <path d="m314.72,511.29c-17.17-.53-34.21-1.69-50.96-6.21-26.97-7.28-51.22-19.83-72.83-37.27-17.72-14.3-32.08-31.73-43.6-51.41-4.12-7.03-6.55-14.96-10.17-22.05-6.74-13.19-9.02-27.29-12.1-41.26-1.35-6.14-1.05-12.69-2.23-18.98-.53-2.81.67-3.7,3.54-3.67,12.16.15,24.33.08,36.5.08,38.83,0,77.66-.11,116.49.09,4.95.03,7.46-.85,6.51-6.28-.28-1.62-.12-3.32-.16-4.98.05-.57.1-1.15.15-1.73,3.31-12.42,12.76-22.88,28.17-23.44,5.27.22,10.45,1.04,15.52,2.47,3.39,2.65,6.78,5.29,10.17,7.94,2.64,4.28,4.23,9.02,5.91,13.71.51,4.04.63,8.07-.6,12.02-2.21,12.45-12.45,22.95-25.79,23.03-3.97.02-4.63,1.48-4.62,4.98.11,50.98.09,101.97.11,152.95Z" style="fill: #363e4d;"/>
  <path d="m314.02,294.18c-15.4.56-24.86,11.02-28.17,23.44-.32.09-.65.17-.97.26-51.95-.04-103.89-.08-155.84-.11-6.35,0-5.95.02-5.76-6.36.58-19.22,4.82-37.65,11.5-55.55,6.66-17.85,16.23-34.09,27.8-49.22,14.58-19.08,32.38-34.41,52.91-46.73,15.06-9.04,30.76-16.66,47.9-20.75,16.6-3.96,33.3-7.64,50.57-6.76.02,53.93.03,107.87.05,161.8Z" style="fill: #2f9491;"/>
  <path d="m314.72,511.29c-.02-50.98,0-101.97-.11-152.95,0-3.51.65-4.96,4.62-4.98,13.33-.08,23.58-10.58,25.79-23.03,36.47.04,72.93.09,109.4.12,15.32.01,30.64-.01,45.96-.02,7.13,0,6.97,0,6.7,7.05-1.43,38.53-16.39,71.72-40.05,101.41-12.91,16.19-28.06,30.2-45.57,41.18-19.92,12.49-41.16,22.79-64.45,27.11-13.87,2.57-27.94,5.42-42.28,4.12Z" style="fill: #a773a9;"/>
  <path d="m314.02,294.18c-.02-53.93-.03-107.87-.05-161.8,15.79-.49,31.27,1.76,46.57,5.4,24.08,5.73,46.52,15.28,66.6,29.81,6.14,4.44,11.83,9.58,18.06,13.96,3.9,2.74,3.1,5.29-.12,7.95-14.24,11.72-27.35,24.69-40.82,37.25-17.32,16.14-34.48,32.46-51.74,48.66-7.61,7.14-15.31,14.17-22.97,21.25-5.08-1.43-10.25-2.25-15.52-2.47Z" style="fill: #3dd0c6;"/>
  <path d="m345.62,318.3c-1.69-4.69-3.27-9.43-5.91-13.71,20.37-18.93,40.78-37.83,61.12-56.79,17.42-16.24,34.75-32.58,52.15-48.83,5.04-4.71,5.07-4.62,9.55.42,14.82,16.69,26.19,35.62,33.81,56.44,5.7,15.55,9.95,31.72,10.67,48.52.13,2.97.49,5.93.93,8.87.65,4.33-1.33,5.66-5.34,5.15-1.64-.21-3.33-.04-5-.04-50.66,0-101.32-.02-151.98-.03Z" style="fill: #fbaa6b;"/>
  <path d="m284.88,317.88c.32-.09.65-.17.97-.26-.05.58-.1,1.16-.15,1.73-.27-.49-.55-.98-.82-1.47Z" style="fill: #a773a9;"/>
</svg>